<?xml version="1.0" encoding="utf-8"?>
<svg version="1.1" xmlns:xlink="http://www.w3.org/1999/xlink" width="22px" height="18px" xmlns="http://www.w3.org/2000/svg">
  <g transform="matrix(1 0 0 1 -480 -182 )">
    <path d="M 22 1  L 22 17.007  C 21.9961921768869 17.553444456131  21.5544403421673 17.9956416052001  21.008 18  L 2.992 18  C 2.44397180835651 17.9994481082886  1.99999972210884 17.5550284695346  2 17.007  L 2 16  L 20 16  L 20 4.3  L 12 11.5  L 2 2.5  L 2 1  C 2 0.447715250169207  2.44771525016921 0  3 0  L 21 0  C 21.5522847498308 0  22 0.447715250169207  22 1  Z M 19.566 2  L 4.434 2  L 12 8.81  L 19.566 2  Z M 0 14  L 0 12  L 8 12  L 8 14  L 0 14  Z M 0 9  L 0 7  L 5 7  L 5 9  L 0 9  Z " fill-rule="nonzero" fill="#4e5969" stroke="none" transform="matrix(1 0 0 1 480 182 )" />
  </g>
</svg>