<?xml version="1.0" encoding="utf-8"?>
<svg version="1.1" xmlns:xlink="http://www.w3.org/1999/xlink" width="22px" height="19px" xmlns="http://www.w3.org/2000/svg">
  <g transform="matrix(1 0 0 1 -481 -297 )">
    <path d="M 9 11.676  L 9 11.614  C 9 9.106  11.016 6.996  13.753 6.381  C 13.389 4.079  10.959 2.2  7.9 2.2  C 4.58 2.2  2 4.413  2 6.98  C 2 7.949  2.36 8.88  3.04 9.678  C 3.072 9.716  3.123 9.772  3.192 9.843  C 3.77990165406456 10.4472015032599  4.13487791926029 11.2400526824097  4.194 12.081  C 4.9080945364635 11.6681821463652  5.74197074168953 11.5122053022222  6.557 11.639  C 6.723 11.665  6.859 11.685  6.962 11.699  C 7.63907752975343 11.7869508805001  8.32518141465423 11.7788711487839  9 11.675  Z M 15.4 17.028  C 12.706 17.028  10.402 15.62  9.457 13.627  C 8.54727556984378 13.7831991048469  7.61923719125942 13.8017396463733  6.704 13.682  C 6.55240322097604 13.6614897891277  6.40105891575646 13.6391548365953  6.25 13.615  C 5.87627704254073 13.5567754853845  5.49398037489573 13.6318189053296  5.17 13.827  L 3.266 14.975  C 3.11936337407522 15.0653535525432  2.94763897350499 15.1063571339038  2.776 15.092  C 2.36341597695469 15.0608519365061  2.04454715403966 14.7170026801166  2.04454715403966 14.3032445648708  C 2.04454715403966 14.2824722182581  2.04536540369626 14.2617079327487  2.047 14.241  L 2.197 12.46  C 2.2348197542387 12.0079772180525  2.07465657463921 11.5617823008539  1.758 11.237  C 1.67487928980966 11.152272301084  1.59450442823566 11.0648938208666  1.517 10.975  C 0.563 9.855  0 8.473  0 6.979  C 0 3.235  3.537 0.2  7.9 0.2  C 11.96 0.2  15.303 2.827  15.75 6.208  C 19.122 6.361  21.8 8.723  21.8 11.614  C 21.8 12.807  21.344 13.91  20.571 14.804  C 20.52 14.864  20.455 14.934  20.376 15.014  C 20.1201983107421 15.2715442859455  19.9900914543507 15.6282417349285  20.02 15.99  L 20.141 17.413  C 20.142135097287 17.4284666010584  20.1427032173667 17.4439695938953  20.1427032173667 17.4594777915388  C 20.1427032173667 17.7933741462791  19.8841193008697 18.070233641113  19.551 18.093  C 19.4120602777914 18.1043800928049  19.2730850712581 18.0714741245073  19.154 17.999  L 17.611 17.082  C 17.3479634326659 16.9263242713926  17.0391100880558 16.866603201325  16.737 16.913  C 16.59 16.936  16.467 16.953  16.369 16.966  C 16.053 17.006  15.729 17.028  15.4 17.028  Z M 16.434 14.937  C 16.9983396701269 14.8501322006722  17.5755405116703 14.910056393052  18.11 15.111  C 18.2502339265628 14.543842932245  18.5407587674241 14.0249745482097  18.951 13.609  C 19.001 13.559  19.038 13.519  19.057 13.497  C 19.546 12.932  19.8 12.284  19.8 11.614  C 19.8 9.81  17.897 8.2  15.4 8.2  C 12.903 8.2  11 9.81  11 11.614  C 11 13.418  12.903 15.028  15.4 15.028  C 15.641 15.028  15.88 15.012  16.114 14.982  C 16.194 14.972  16.302 14.957  16.434 14.936  Z " fill-rule="nonzero" fill="#4e5969" stroke="none" transform="matrix(1 0 0 1 481 297 )" />
  </g>
</svg>