<?xml version="1.0" encoding="utf-8"?>
<svg version="1.1" xmlns:xlink="http://www.w3.org/1999/xlink" width="16px" height="20px" xmlns="http://www.w3.org/2000/svg">
  <g transform="matrix(1 0 0 1 -484 -64 )">
    <path d="M 13.54675 11.8544166666667  C 13.4184166666667 11.43  13.2488333333333 10.94325  13.07375 10.4711666666667  L 12.43575 8.82483333333333  C 12.43575 8.80558333333333  12.4449166666667 8.48108333333333  12.4449166666667 8.31333333333333  C 12.444 5.49733333333333  11.1588333333333 2.66666666666667  8 2.66666666666667  C 4.84116666666667 2.66666666666667  3.556 5.49733333333333  3.556 8.31333333333333  C 3.556 8.48108333333333  3.56425 8.80558333333333  3.56516666666667 8.82483333333333  L 2.92716666666667 10.4711666666667  C 2.753 10.94325  2.57883333333333 11.4336666666667  2.45325 11.8553333333333  C 1.851 13.8619166666667  2.04625 14.6924166666667  2.19475 14.71075  C 2.51375 14.7501666666667  3.43591666666667 13.2000833333333  3.43591666666667 13.2000833333333  C 3.43591666666667 14.0984166666667  3.88325 15.2699166666667  4.84941666666667 16.1150833333333  C 4.48825 16.2315  4.04458333333333 16.4084166666667  3.76041666666667 16.6256666666667  C 3.50375 16.8218333333333  3.53583333333333 17.02075  3.58258333333333 17.1023333333333  C 3.78425 17.45525  7.05675 17.3269166666667  8.00091666666667 17.2169166666667  C 8.94508333333333 17.3269166666667  12.2166666666667 17.45525  12.41925 17.1014166666667  C 12.4650833333333 17.02075  12.4971666666667 16.8218333333333  12.2414166666667 16.6256666666667  C 11.9563333333333 16.4084166666667  11.5126666666667 16.2315  11.1505833333333 16.116  C 12.1176666666667 15.2699166666667  12.5640833333333 14.0975  12.5640833333333 13.2000833333333  C 12.5640833333333 13.2000833333333  13.4871666666667 14.7501666666667  13.8061666666667 14.71075  C 13.9546666666667 14.6924166666667  14.1526666666667 13.8600833333333  13.54675 11.8544166666667  Z M 14.2296666666667 16.4964166666667  C 14.3488333333333 17.00425  14.2800833333333 17.5414166666667  14.0096666666667 18.0125833333333  C 13.66775 18.61025  13.2460833333333 18.83025  12.6915 18.9815  C 12.4715 19.0410833333333  12.235 19.0805  11.9636666666667 19.108  C 11.5603333333333 19.14925  11.0598333333333 19.1675833333333  10.4850833333333 19.1666666666667  C 9.65592567764986 19.1650471294442  8.82717987541868 19.1295731393856  8.00091666666667 19.0603333333333  C 7.36658333333333 19.1199166666667  6.36466666666667 19.1648333333333  5.51675 19.1666666666667  C 5.02291170632902 19.171924351763  4.52912143355981 19.1523440683323  4.03725 19.108  C 3.7919003988249 19.0857255497997  3.54878409281218 19.0434177941505  3.31033333333333 18.9815  C 2.75575 18.8311666666667  2.33408333333333 18.61025  1.99033333333333 18.01075  C 1.72798509384196 17.5519938611162  1.64967672490755 17.0107159302391  1.77125 16.4964166666667  C 1.22858333333333 16.3754166666667  0.853666666666667 16.0536666666667  0.598833333333334 15.6613333333333  C 0.470236426905702 15.4609231863683  0.374605925739934 15.2411896723629  0.315583333333334 15.0105  C 0.233434454327536 14.6790973699393  0.197649045848852 14.3379020097891  0.20925 13.9966666666667  C 0.221166666666667 13.2770833333333  0.380666666666667 12.3815  0.696916666666668 11.3273333333333  C 0.82525 10.9001666666667  0.996666666666667 10.4033333333333  1.21758333333333 9.81024999999999  L 1.7245 8.49941666666666  C 1.72348258462016 8.43739355733276  1.72287146039808 8.37536444879185  1.72266666666667 8.31333333333333  C 1.72266666666667 4.13791666666667  3.95566666666667 0.833333333333333  8 0.833333333333333  C 12.04525 0.833333333333333  14.2773333333333 4.13791666666667  14.2773333333333 8.31333333333333  L 14.2764166666667 8.49941666666667  L 14.7833333333333 9.81025  L 14.7925 9.83408333333333  C 14.99875 10.3895833333333  15.1710833333333 10.891  15.3021666666667 11.3245833333333  C 15.6211666666667 12.37875  15.7806666666667 13.2761666666667  15.7925833333333 13.9975833333333  C 15.799 14.3706666666667  15.7650833333333 14.7089166666667  15.6844166666667 15.01325  C 15.6239166666667 15.23875  15.5368333333333 15.45325  15.40025 15.66225  C 15.14725 16.0536666666667  14.77325 16.3735833333333  14.2296666666667 16.4964166666667  Z " fill-rule="nonzero" fill="#4e5969" stroke="none" transform="matrix(1 0 0 1 484 64 )" />
  </g>
</svg>