<?xml version="1.0" encoding="utf-8"?>
<svg version="1.1" xmlns:xlink="http://www.w3.org/1999/xlink" width="76px" height="76px" xmlns="http://www.w3.org/2000/svg">
  <defs>
    <filter x="-20px" y="-20px" width="76px" height="76px" filterUnits="userSpaceOnUse" id="filter1113">
      <feOffset dx="0" dy="0" in="SourceAlpha" result="shadowOffsetInner" />
      <feGaussianBlur stdDeviation="10" in="shadowOffsetInner" result="shadowGaussian" />
      <feComposite in2="shadowGaussian" operator="atop" in="SourceAlpha" result="shadowComposite" />
      <feColorMatrix type="matrix" values="0 0 0 0 0  0 0 0 0 0  0 0 0 0 0  0 0 0 0.0784313725490196 0  " in="shadowComposite" />
    </filter>
    <g id="widget1114">
      <path d="M 18 0  C 28.08 0  36 7.92  36 18  C 36 28.08  28.08 36  18 36  C 7.92 36  0 28.08  0 18  C 0 7.92  7.92 0  18 0  Z " fill-rule="nonzero" fill="#ffffff" stroke="none" />
      <path d="M 18 0.5  C 27.8 0.5  35.5 8.2  35.5 18  C 35.5 27.8  27.8 35.5  18 35.5  C 8.2 35.5  0.5 27.8  0.5 18  C 0.5 8.2  8.2 0.5  18 0.5  Z " stroke-width="1" stroke="#e5e6eb" fill="none" />
    </g>
  </defs>
  <g transform="matrix(1 0 0 1 20 20 )">
    <use xlink:href="#widget1114" filter="url(#filter1113)" />
    <use xlink:href="#widget1114" />
  </g>
</svg>