<?xml version="1.0" encoding="utf-8"?>
<svg version="1.1" xmlns:xlink="http://www.w3.org/1999/xlink" width="16px" height="16px" xmlns="http://www.w3.org/2000/svg">
  <g transform="matrix(1 0 0 1 -18 -13 )">
    <path d="M 15.6190476190476 8  C 15.6190476190476 12.208  12.208 15.6190476190476  8 15.6190476190476  C 3.792 15.6190476190476  0.38095238095238 12.208  0.38095238095238 8  C 0.38095238095238 3.792  3.792 0.380952380952381  8 0.380952380952381  C 12.208 0.380952380952381  15.6190476190476 3.792  15.6190476190476 8  Z M 8.76190476190476 7.23809523809524  L 7.23809523809524 7.23809523809524  L 7.23809523809524 11.8095238095238  L 8.76190476190476 11.8095238095238  L 8.76190476190476 7.23809523809524  Z M 8.76190476190476 4.19047619047619  L 7.23809523809524 4.19047619047619  L 7.23809523809524 5.71428571428572  L 8.76190476190476 5.71428571428572  L 8.76190476190476 4.19047619047619  Z " fill-rule="nonzero" fill="#165dff" stroke="none" transform="matrix(1 0 0 1 18 13 )" />
  </g>
</svg>