<?xml version="1.0" encoding="utf-8"?>
<svg version="1.1" xmlns:xlink="http://www.w3.org/1999/xlink" width="16px" height="16px" xmlns="http://www.w3.org/2000/svg">
  <g transform="matrix(1 0 0 1 -18 -13 )">
    <path d="M 15.6190476190476 8  C 15.6190476190476 12.208  12.208 15.6190476190476  8 15.6190476190476  C 3.792 15.6190476190476  0.38095238095238 12.208  0.38095238095238 8  C 0.38095238095238 3.792  3.792 0.380952380952381  8 0.380952380952381  C 12.208 0.380952380952381  15.6190476190476 3.792  15.6190476190476 8  Z M 10.1546666666667 4.76723809523809  L 8 6.92266666666667  L 5.84533333333333 4.76723809523809  L 4.76723809523809 5.84533333333333  L 6.92266666666667 8  L 4.76723809523809 10.1546666666667  L 5.84533333333333 11.2327619047619  L 8 9.07733333333333  L 10.1546666666667 11.2327619047619  L 11.2327619047619 10.1546666666667  L 9.07733333333333 8  L 11.2327619047619 5.84533333333333  L 10.1546666666667 4.76723809523809  Z " fill-rule="nonzero" fill="#e53c40" stroke="none" transform="matrix(1 0 0 1 18 13 )" />
  </g>
</svg>