<?xml version="1.0" encoding="utf-8"?>
<svg version="1.1" xmlns:xlink="http://www.w3.org/1999/xlink" width="150px" height="20px" xmlns="http://www.w3.org/2000/svg">
  <defs>
    <mask fill="white" id="clip1134">
      <path d="M 10 20  C 4.4 20  0 15.6  0 10  C 0 4.4  4.4 0  10 0  L 140 0  C 145.6 0  150 4.4  150 10  C 150 15.6  145.6 20  140 20  L 70.3333333333321 20  L 10 20  Z " fill-rule="evenodd" />
    </mask>
  </defs>
  <g transform="matrix(1 0 0 1 -10 -10 )">
    <path d="M 10 20  C 4.4 20  0 15.6  0 10  C 0 4.4  4.4 0  10 0  L 140 0  C 145.6 0  150 4.4  150 10  C 150 15.6  145.6 20  140 20  L 70.3333333333321 20  L 10 20  Z " fill-rule="nonzero" fill="#ffffff" stroke="none" transform="matrix(1 0 0 1 10 10 )" />
    <path d="M 10 20  C 4.4 20  0 15.6  0 10  C 0 4.4  4.4 0  10 0  L 140 0  C 145.6 0  150 4.4  150 10  C 150 15.6  145.6 20  140 20  L 70.3333333333321 20  L 10 20  Z " stroke-width="2" stroke="#797979" fill="none" transform="matrix(1 0 0 1 10 10 )" mask="url(#clip1134)" />
  </g>
</svg>