<?xml version="1.0" encoding="utf-8"?>
<svg version="1.1" xmlns:xlink="http://www.w3.org/1999/xlink" width="48px" height="48px" xmlns="http://www.w3.org/2000/svg">
  <defs>
    <filter x="-4px" y="549px" width="48px" height="48px" filterUnits="userSpaceOnUse" id="filter886">
      <feOffset dx="1" dy="1" in="SourceAlpha" result="shadowOffsetInner" />
      <feGaussianBlur stdDeviation="2.5" in="shadowOffsetInner" result="shadowGaussian" />
      <feComposite in2="shadowGaussian" operator="atop" in="SourceAlpha" result="shadowComposite" />
      <feColorMatrix type="matrix" values="0 0 0 0 0  0 0 0 0 0  0 0 0 0 0  0 0 0 0.349019607843137 0  " in="shadowComposite" />
    </filter>
    <g id="widget887">
      <path d="M 19 553  C 29.64 553  38 561.36  38 572  C 38 582.64  29.64 591  19 591  C 8.36 591  0 582.64  0 572  C 0 561.36  8.36 553  19 553  Z " fill-rule="nonzero" fill="#ffffff" stroke="none" />
      <path d="M 19 553.5  C 29.36 553.5  37.5 561.64  37.5 572  C 37.5 582.36  29.36 590.5  19 590.5  C 8.64 590.5  0.5 582.36  0.5 572  C 0.5 561.64  8.64 553.5  19 553.5  Z " stroke-width="1" stroke="#aaaaaa" fill="none" />
    </g>
  </defs>
  <g transform="matrix(1 0 0 1 4 -549 )">
    <use xlink:href="#widget887" filter="url(#filter886)" />
    <use xlink:href="#widget887" />
  </g>
</svg>