<?xml version="1.0" encoding="utf-8"?>
<svg version="1.1" xmlns:xlink="http://www.w3.org/1999/xlink" width="162px" height="157px" xmlns="http://www.w3.org/2000/svg">
  <defs>
    <mask fill="white" id="clip919">
      <path d="M 0 147  L 0 10  C 0 4.39999999999998  4.39999999999998 0  10 0  L 152 0  C 157.6 0  162 4.39999999999998  162 10  L 162 70.3519668737067  L 162 147  C 162 152.6  157.6 157  152 157  L 10 157  C 4.39999999999998 157  0 152.6  0 147  Z " fill-rule="evenodd" />
    </mask>
  </defs>
  <g transform="matrix(1 0 0 1 0 -17 )">
    <path d="M 0 147  L 0 10  C 0 4.39999999999998  4.39999999999998 0  10 0  L 152 0  C 157.6 0  162 4.39999999999998  162 10  L 162 70.3519668737067  L 162 147  C 162 152.6  157.6 157  152 157  L 10 157  C 4.39999999999998 157  0 152.6  0 147  Z " fill-rule="nonzero" fill="#ffffff" stroke="none" transform="matrix(1 0 0 1 0 17 )" />
    <path d="M 0 147  L 0 10  C 0 4.39999999999998  4.39999999999998 0  10 0  L 152 0  C 157.6 0  162 4.39999999999998  162 10  L 162 70.3519668737067  L 162 147  C 162 152.6  157.6 157  152 157  L 10 157  C 4.39999999999998 157  0 152.6  0 147  Z " stroke-width="2" stroke="#d7d7d7" fill="none" transform="matrix(1 0 0 1 0 17 )" mask="url(#clip919)" />
  </g>
</svg>