<?xml version="1.0" encoding="utf-8"?>
<svg version="1.1" xmlns:xlink="http://www.w3.org/1999/xlink" width="23px" height="23px" xmlns="http://www.w3.org/2000/svg">
  <g transform="matrix(1 0 0 1 -121 -687 )">
    <path d="M 132.5 687  C 138.94 687  144 692.06  144 698.5  C 144 704.94  138.94 710  132.5 710  C 126.06 710  121 704.94  121 698.5  C 121 692.06  126.06 687  132.5 687  Z " fill-rule="nonzero" fill="#ffffff" stroke="none" />
    <path d="M 132.5 687.5  C 138.66 687.5  143.5 692.34  143.5 698.5  C 143.5 704.66  138.66 709.5  132.5 709.5  C 126.34 709.5  121.5 704.66  121.5 698.5  C 121.5 692.34  126.34 687.5  132.5 687.5  Z " stroke-width="1" stroke="#d7d7d7" fill="none" />
  </g>
</svg>