<?xml version="1.0" encoding="utf-8"?>
<svg version="1.1" xmlns:xlink="http://www.w3.org/1999/xlink" width="24px" height="24px" xmlns="http://www.w3.org/2000/svg">
  <g transform="matrix(1 0 0 1 -1750 -814 )">
    <path d="M 0 0  L 24 0  L 24 24  L 0 24  L 0 0  Z M 12.6096 23.2758  C 12.6076 23.2657  12.601 23.2593  12.5935 23.2578  L 12.5819 23.2595  L 12.5109 23.295  L 12.4919 23.2987  L 12.4767 23.295  L 12.4057 23.2595  C 12.3958 23.2564  12.387 23.259  12.3821 23.2649  L 12.378 23.2758  L 12.3609 23.7031  L 12.3659 23.7235  L 12.3769 23.7357  L 12.4805 23.8097  L 12.4953 23.8136  L 12.5071 23.8097  L 12.6107 23.7357  L 12.6233 23.7197  L 12.6267 23.7031  L 12.6096 23.2758  Z M 12.8777 23.1665  C 12.8753 23.1546  12.8674 23.147  12.8584 23.1453  L 12.8445 23.1473  L 12.6598 23.2397  L 12.6499 23.2499  L 12.6472 23.2611  L 12.6651 23.6906  L 12.6699 23.7034  L 12.6784 23.7105  L 12.8793 23.8032  C 12.8914 23.8069  12.9022 23.803  12.9078 23.7952  L 12.9118 23.7812  L 12.8777 23.1665  Z M 12.3278 23.2397  L 12.143 23.1473  C 12.1332 23.1424  12.1222 23.1453  12.1156 23.1526  L 12.1099 23.1665  L 12.0758 23.7812  C 12.0751 23.7927  12.0828 23.8019  12.0926 23.8046  L 12.1083 23.8032  L 12.3092 23.7105  L 12.3186 23.7024  L 12.3225 23.6906  L 12.3404 23.2611  L 12.3372 23.2485  L 12.3278 23.2397  Z " fill-rule="nonzero" fill="#ffffff" stroke="none" fill-opacity="0" transform="matrix(1 0 0 1 1750 814 )" />
  </g>
</svg>