<?xml version="1.0" encoding="utf-8"?>
<svg version="1.1" xmlns:xlink="http://www.w3.org/1999/xlink" width="24px" height="24px" xmlns="http://www.w3.org/2000/svg">
  <g transform="matrix(1 0 0 1 -1818 -814 )">
    <path d="M 0 0  L 24 0  L 24 24  L 0 24  L 0 0  Z M 12.5934901 23.257841  L 12.5819402 23.2595131  L 12.5108777 23.2950439  L 12.4918791 23.2987469  L 12.4767152 23.2950439  L 12.4056548 23.2595131  C 12.3958229 23.2563662  12.3870493 23.2590235  12.3821421 23.2649074  L 12.3780323 23.275831  L 12.360941 23.7031097  L 12.3658947 23.7234994  L 12.3769048 23.7357139  L 12.4804777 23.8096931  L 12.4953491 23.8136134  L 12.5071152 23.8096931  L 12.6106902 23.7357139  L 12.6232938 23.7196733  L 12.6266527 23.7031097  L 12.609561 23.275831  C 12.6075724 23.2657013  12.6010112 23.2592993  12.5934901 23.257841  Z M 12.8583906 23.1452862  L 12.8445485 23.1473072  L 12.6598443 23.2396597  L 12.6498822 23.2499052  L 12.6471943 23.2611114  L 12.6650943 23.6906389  L 12.6699349 23.7034178  L 12.678386 23.7104931  L 12.8793402 23.8032389  C 12.8914285 23.8068999  12.9022333 23.8029875  12.9078286 23.7952264  L 12.9118235 23.7811639  L 12.8776777 23.1665331  C 12.8752882 23.1545897  12.8674102 23.1470016  12.8583906 23.1452862  Z M 12.3277531 23.2396597  L 12.1430473 23.1473072  C 12.1332178 23.1423925  12.1221763 23.1452606  12.1156365 23.1525954  L 12.1099173 23.1665331  L 12.0757714 23.7811639  C 12.0751323 23.7926639  12.0828099 23.8018602  12.0926481 23.8045676  L 12.108256 23.8032389  L 12.3092106 23.7104931  L 12.3186497 23.7024347  L 12.3225043 23.6906389  L 12.340401 23.2611114  L 12.337245 23.2485176  L 12.3277531 23.2396597  Z " fill-rule="nonzero" fill="#ffffff" stroke="none" fill-opacity="0" transform="matrix(1 0 0 1 1818 814 )" />
  </g>
</svg>