<?xml version="1.0" encoding="utf-8"?>
<svg version="1.1" xmlns:xlink="http://www.w3.org/1999/xlink" width="20px" height="20px" xmlns="http://www.w3.org/2000/svg">
  <g transform="matrix(1 0 0 1 -1484 -879 )">
    <path d="M 11.4999 1.5  C 11.4999 2.32843  10.8283 3  9.9999 3  C 9.1715 3  8.4999 2.32843  8.4999 1.5  C 8.4999 0.67157  9.1715 0  9.9999 0  C 10.8283 0  11.4999 0.67157  11.4999 1.5  Z M 6.21725 2.24172  C 6.70419 2.91194  6.55562 3.84999  5.88541 4.33693  C 5.21519 4.82386  4.27714 4.67529  3.7902 4.00508  C 3.30326 3.33487  3.45184 2.39681  4.12205 1.90988  C 4.79226 1.42294  5.73032 1.57151  6.21725 2.24172  Z M 0.48936 6.90986  C 0.23336 7.69774  0.66454 8.544  1.45242 8.8  C 2.2403 9.056  3.08653 8.6248  3.34253 7.83691  C 3.59853 7.04903  3.16735 6.2028  2.37947 5.9468  C 1.59159 5.6908  0.74536 6.12198  0.48936 6.90986  Z M 1.45241 11.2  C 2.24029 10.9441  3.08652 11.3752  3.34252 12.1631  C 3.59851 12.951  3.16734 13.7972  2.37946 14.0532  C 1.59158 14.3092  0.74535 13.878  0.48935 13.0902  C 0.23335 12.3023  0.66453 11.456  1.45241 11.2  Z M 4.12204 18.0902  C 4.79225 18.5771  5.7303 18.4285  6.21724 17.7583  C 6.70418 17.0881  6.55561 16.1501  5.88539 15.6631  C 5.21518 15.1762  4.27713 15.3248  3.79019 15.995  C 3.30325 16.6652  3.45183 17.6032  4.12204 18.0902  Z M 8.4999 18.5  C 8.4999 17.6716  9.1715 17  9.9999 17  C 10.8283 17  11.4999 17.6716  11.4999 18.5  C 11.4999 19.3284  10.8283 20  9.9999 20  C 9.1715 20  8.4999 19.3284  8.4999 18.5  Z M 15.8777 18.0901  C 16.5479 17.6032  16.6965 16.6651  16.2096 15.9949  C 15.7226 15.3247  14.7846 15.1761  14.1144 15.6631  C 13.4441 16.15  13.2956 17.0881  13.7825 17.7583  C 14.2694 18.4285  15.2075 18.5771  15.8777 18.0901  Z M 17.6203 14.0532  C 16.8324 13.7972  16.4012 12.951  16.6572 12.1631  C 16.9132 11.3752  17.7595 10.944  18.5473 11.2  C 19.3352 11.456  19.7664 12.3023  19.5104 13.0901  C 19.2544 13.878  18.4082 14.3092  17.6203 14.0532  Z M 19.5104 6.90984  C 19.2544 6.12196  18.4082 5.69078  17.6203 5.94678  C 16.8324 6.20278  16.4012 7.04901  16.6572 7.83689  C 16.9132 8.6248  17.7595 9.0559  18.5474 8.8  C 19.3352 8.544  19.7664 7.69772  19.5104 6.90984  Z M 16.2096 4.00503  C 15.7226 4.67524  14.7846 4.82381  14.1144 4.33688  C 13.4442 3.84994  13.2956 2.91189  13.7825 2.24167  C 14.2695 1.57146  15.2075 1.42289  15.8777 1.90983  C 16.5479 2.39676  16.6965 3.33482  16.2096 4.00503  Z " fill-rule="nonzero" fill="#000000" stroke="none" transform="matrix(1 0 0 1 1484 879 )" />
  </g>
</svg>