<?xml version="1.0" encoding="utf-8"?>
<svg version="1.1" xmlns:xlink="http://www.w3.org/1999/xlink" width="20px" height="20px" xmlns="http://www.w3.org/2000/svg">
  <g transform="matrix(1 0 0 1 -1752 -816 )">
    <path d="M 20 10  C 20 4.47715  15.5228 0  10 0  C 4.47715 0  0 4.47715  0 10  C 0 15.5228  4.47715 20  10 20  C 15.5228 20  20 15.5228  20 10  Z M 12.5 8.5  C 12.5 9.2372  12.1809 9.8998  11.6733 10.3574  C 11.5299 10.4868  11.4459 10.6754  11.4777 10.866  L 11.903 13.4178  C 11.9537 13.7226  11.7187 14  11.4098 14  L 8.5902 14  C 8.2813 14  8.0463 13.7226  8.097 13.4178  L 8.5223 10.866  C 8.5541 10.6754  8.4702 10.4868  8.3267 10.3574  C 7.81908 9.8999  7.5 9.2372  7.5 8.5  C 7.5 7.11929  8.6193 6  10 6  C 11.3807 6  12.5 7.11929  12.5 8.5  Z " fill-rule="nonzero" fill="#09244b" stroke="none" transform="matrix(1 0 0 1 1752 816 )" />
  </g>
</svg>