<?xml version="1.0" encoding="utf-8"?>
<svg version="1.1" xmlns:xlink="http://www.w3.org/1999/xlink" width="22px" height="22px" xmlns="http://www.w3.org/2000/svg">
  <g transform="matrix(1 0 0 1 -1819 -815 )">
    <path d="M 12.5 17  L 12.5 20  C 12.5 20.8284  11.8284 21.5  11 21.5  C 10.1716 21.5  9.5 20.8284  9.5 20  L 9.5 17  C 9.5 16.1716  10.1716 15.5  11 15.5  C 11.8284 15.5  12.5 16.1716  12.5 17  Z M 12.5 2  L 12.5 5  C 12.5 5.82843  11.8284 6.5  11 6.5  C 10.1716 6.5  9.5 5.82843  9.5 5  L 9.5 2  C 9.5 1.17157  10.1716 0.5  11 0.5  C 11.8284 0.5  12.5 1.17157  12.5 2  Z M 20 12.5  C 20.8284 12.5  21.5 11.8284  21.5 11  C 21.5 10.1716  20.8284 9.5  20 9.5  L 17 9.5  C 16.1716 9.5  15.5 10.1716  15.5 11  C 15.5 11.8284  16.1716 12.5  17 12.5  L 20 12.5  Z M 2 9.5  L 5 9.5  C 5.82843 9.5  6.5 10.1716  6.5 11  C 6.5 11.8284  5.82843 12.5  5 12.5  L 2 12.5  C 1.17157 12.5  0.5 11.8284  0.5 11  C 0.5 10.1716  1.17157 9.5  2 9.5  Z M 16.3033 18.4247  C 16.8891 19.0105  17.8388 19.0105  18.4246 18.4247  C 19.0104 17.8389  19.0104 16.8891  18.4246 16.3034  L 16.3033 14.182  C 15.7175 13.5962  14.7678 13.5962  14.182 14.182  C 13.5962 14.7678  13.5962 15.7176  14.182 16.3034  L 16.3033 18.4247  Z M 5.69669 3.57534  L 7.81802 5.69666  C 8.4038 6.28245  8.4038 7.2322  7.81802 7.81798  C 7.23223 8.40377  6.28248 8.40377  5.69669 7.81798  L 3.57537 5.69666  C 2.98959 5.11088  2.98959 4.16113  3.57537 3.57534  C 4.16116 2.98956  5.11091 2.98956  5.69669 3.57534  Z M 18.4246 5.69665  C 19.0104 5.11086  19.0104 4.16111  18.4246 3.57533  C 17.8388 2.98954  16.8891 2.98954  16.3033 3.57533  L 14.182 5.69665  C 13.5962 6.28243  13.5962 7.23218  14.182 7.81797  C 14.7678 8.40375  15.7175 8.40375  16.3033 7.81797  L 18.4246 5.69665  Z M 3.57537 16.3033  L 5.69669 14.182  C 6.28248 13.5962  7.23223 13.5962  7.81801 14.182  C 8.4038 14.7678  8.4038 15.7175  7.81802 16.3033  L 5.69669 18.4247  C 5.11091 19.0104  4.16116 19.0104  3.57537 18.4247  C 2.98959 17.8389  2.98959 16.8891  3.57537 16.3033  Z " fill-rule="nonzero" fill="#000000" stroke="none" transform="matrix(1 0 0 1 1819 815 )" />
  </g>
</svg>