<?xml version="1.0" encoding="utf-8"?>
<svg version="1.1" xmlns:xlink="http://www.w3.org/1999/xlink" width="22px" height="25px" xmlns="http://www.w3.org/2000/svg">
  <g transform="matrix(1 0 0 1 -126 -3 )">
    <path d="M 17.4441223717391 6.65077831956529  C 17.5952764326087 4.23231348913038  16.6883521152174 3.02308104999992  15.7814277978261 1.96500269565217  C 14.5721953826087 0.755770280434774  12.7583467478261 0  10.9444981130435 0  C 9.28180353913044 0  7.61910896521738 0.755770256521657  6.25872248913043 1.96500269565217  C 5.04949007391303 3.17423511086963  4.4448738543478 4.83692968478266  4.4448738543478 6.65077831956529  C 4.4448738543478 8.91808911304349  5.50295223260869 10.7319377478261  7.16564680652175 12.0923242  C 5.65410626956523 12.6969404195652  4.29371981739132 13.4527106760869  3.38679550000001 14.3596349934783  C 1.11948470652175 16.6269457869565  0.0614063521739183 19.6500268369564  0.0614063282608583 23.4288781434782  C 0.0614063282608583 24.0334943630435  0.666022547826117 24.4869565217392  1.11948470652175 24.4869565217392  C 1.57294686521738 24.4869565217392  2.17756308478258 24.1846484239131  2.17756306086957 23.5800322043478  C 2.17756306086957 19.498872776087  3.68910359782609 16.4757917260869  6.56103058695652 14.6619430913043  C 8.82834138043481 13.4527106760869  11.095652173913 13.3015566152174  11.095652173913 13.3015566391304  L 11.5491143326087 13.3015566391304  C 14.4210413217392 12.3946323217392  15.1768116021739 11.6388620652173  15.9325818586956 10.8830917847826  C 15.9325818586956 10.7319377239131  16.0837359195652 10.7319377239131  16.0837359195652 10.5807836869566  C 17.1418142978261 9.06924315000003  17.4441223956522 8.31347289347832  17.4441223717391 6.65077831956529  Z M 10.793344076087 1.81384863478263  C 13.3629629673913 1.96500269565217  15.3279656630435 4.08115942826089  15.3279656391304 6.65077831956529  C 15.3279656391304 7.86001073478269  15.0256575413044 8.91808911304349  14.118733223913 9.82501343043481  C 13.2118089065218 10.7319377478261  12.1537305282609 11.1853999065217  10.793344076087 11.1853998826087  C 8.37487924565215 11.1853998826087  6.25872248913043 9.06924315000003  6.25872248913043 6.49962425869563  C 6.25872248913043 3.93000536739129  8.22372518478261 1.81384863478263  10.793344076087 1.81384863478263  Z M 21.9787439586956 23.5800322043478  C 21.9787439586956 16.0223295673913  18.1998926521739 13.9061728347826  18.0487385913044 13.755018797826  C 17.5952764326087 13.4527107  17.141814273913 13.6038647369566  16.839506176087 14.0573268956522  C 16.5371980782609 14.5107890543478  16.6883521152174 14.9642512130435  17.141814273913 15.11540525  C 17.141814273913 15.11540525  17.8975845304348 15.5688674086957  18.50220075 16.7780998478261  C 19.2579710065217 17.9873322630435  20.164895323913 20.1034889956522  20.164895323913 23.5800322043478  C 20.164895323913 24.0334943630435  20.6183574826087 24.4869565217392  21.0718196413043 24.4869565217392  C 21.5252818 24.4869565217392  21.9787439586956 24.1846484239131  21.9787439586956 23.5800322043478  Z " fill-rule="nonzero" fill="#ffffff" stroke="none" transform="matrix(1 0 0 1 126 3 )" />
  </g>
</svg>