<?xml version="1.0" encoding="utf-8"?>
<svg version="1.1" xmlns:xlink="http://www.w3.org/1999/xlink" width="17px" height="17px" xmlns="http://www.w3.org/2000/svg">
  <g>
    <path d="M 3.1875 0  L 13.8125 0  C 14.6905381944444 0  15.4412977430556 0.311740451388888  16.0647786458333 0.935221354166667  C 16.6882595486111 1.55870225694444  17 2.30946180555555  17 3.1875  L 17 13.8125  C 17 14.6905381944444  16.6882595486111 15.4412977430556  16.0647786458333 16.0647786458333  C 15.4412977430556 16.6882595486111  14.6905381944444 17  13.8125 17  L 11.7317708333333 17  L 11.7317708333333 10.4147135416667  L 13.9342447916667 10.4147135416667  L 14.2662760416667 7.84700520833333  L 11.7317708333333 7.84700520833333  L 11.7317708333333 6.208984375  C 11.7317708333333 5.79578993055555  11.8184678819444 5.48589409722222  11.9918619791667 5.279296875  C 12.1652560763889 5.07269965277778  12.5028211805556 4.96940104166667  13.0045572916667 4.96940104166667  L 14.3548177083333 4.95833333333333  L 14.3548177083333 2.66731770833333  C 13.8899739583333 2.60091145833333  13.2332899305556 2.56770833333333  12.384765625 2.56770833333333  C 11.3812934027778 2.56770833333333  10.5788845486111 2.86284722222222  9.9775390625 3.453125  C 9.37619357638889 4.04340277777778  9.07552083333333 4.87717013888889  9.07552083333333 5.95442708333333  L 9.07552083333333 7.84700520833333  L 6.86197916666667 7.84700520833333  L 6.86197916666667 10.4147135416667  L 9.07552083333333 10.4147135416667  L 9.07552083333333 17  L 3.1875 17  C 2.30946180555556 17  1.55870225694444 16.6882595486111  0.935221354166667 16.0647786458333  C 0.311740451388889 15.4412977430556  0 14.6905381944444  0 13.8125  L 0 3.1875  C 0 2.30946180555555  0.311740451388889 1.55870225694444  0.935221354166667 0.935221354166667  C 1.55870225694444 0.311740451388888  2.30946180555556 0  3.1875 0  Z " fill-rule="nonzero" fill="#000000" stroke="none" />
  </g>
</svg>