<?xml version="1.0" encoding="utf-8"?>
<svg version="1.1" xmlns:xlink="http://www.w3.org/1999/xlink" width="21px" height="17px" xmlns="http://www.w3.org/2000/svg">
  <g transform="matrix(1 0 0 1 -56 0 )">
    <path d="M 5.69091796875 4.73411270983213  C 5.86181640625 4.56764588329336  5.947265625 4.3451239008793  5.947265625 4.06654676258993  C 5.947265625 3.78796962430056  5.86181640625 3.56374900079936  5.69091796875 3.39388489208633  C 5.52001953125 3.2240207833733  5.29443359375 3.13908872901679  5.01416015625 3.13908872901679  C 4.72021484375 3.13908872901679  4.46044921875 3.22571942446043  4.23486328125 3.39898081534772  C 4.00927734375 3.57224220623501  3.896484375 3.79476418864908  3.896484375 4.06654676258993  C 3.896484375 4.33153477218225  4.00927734375 4.55065947242206  4.23486328125 4.72392086330935  C 4.46044921875 4.89718225419664  4.72021484375 4.98381294964029  5.01416015625 4.98381294964029  C 5.29443359375 4.98381294964029  5.52001953125 4.9005795363709  5.69091796875 4.73411270983213  Z M 13.304443359375 9.75359712230216  C 13.478759765625 9.60411670663469  13.56591796875 9.4308553157474  13.56591796875 9.23381294964029  C 13.56591796875 9.04356514788169  13.478759765625 8.87370103916867  13.304443359375 8.7242206235012  C 13.130126953125 8.57474020783373  12.90625 8.5  12.6328125 8.5  C 12.4482421875 8.5  12.279052734375 8.57643884892087  12.125244140625 8.72931654676259  C 11.971435546875 8.88219424460432  11.89453125 9.05035971223022  11.89453125 9.23381294964029  C 11.89453125 9.42406075139888  11.971435546875 9.59562350119904  12.125244140625 9.74850119904077  C 12.279052734375 9.90137889688249  12.4482421875 9.97781774580336  12.6328125 9.97781774580336  C 12.90625 9.97781774580336  13.130126953125 9.90307753796962  13.304443359375 9.75359712230216  Z M 10.894775390625 4.73411270983213  C 11.062255859375 4.56764588329336  11.14599609375 4.3451239008793  11.14599609375 4.06654676258993  C 11.14599609375 3.78796962430056  11.062255859375 3.56374900079936  10.894775390625 3.39388489208633  C 10.727294921875 3.2240207833733  10.50341796875 3.13908872901679  10.22314453125 3.13908872901679  C 9.92919921875 3.13908872901679  9.66943359375 3.22571942446043  9.44384765625 3.39898081534772  C 9.21826171875 3.57224220623501  9.10546875 3.79476418864908  9.10546875 4.06654676258993  C 9.10546875 4.33153477218225  9.21826171875 4.55065947242206  9.44384765625 4.72392086330935  C 9.66943359375 4.89718225419664  9.92919921875 4.98381294964029  10.22314453125 4.98381294964029  C 10.50341796875 4.98381294964029  10.727294921875 4.9005795363709  10.894775390625 4.73411270983213  Z M 17.390625 9.75359712230216  C 17.568359375 9.60411670663469  17.6572265625 9.4308553157474  17.6572265625 9.23381294964029  C 17.6572265625 9.04356514788169  17.568359375 8.87370103916867  17.390625 8.7242206235012  C 17.212890625 8.57474020783373  16.99072265625 8.5  16.72412109375 8.5  C 16.53955078125 8.5  16.370361328125 8.57643884892087  16.216552734375 8.72931654676259  C 16.062744140625 8.88219424460432  15.98583984375 9.05035971223022  15.98583984375 9.23381294964029  C 15.98583984375 9.42406075139888  16.062744140625 9.59562350119904  16.216552734375 9.74850119904077  C 16.370361328125 9.90137889688249  16.53955078125 9.97781774580336  16.72412109375 9.97781774580336  C 16.99072265625 9.97781774580336  17.212890625 9.90307753796962  17.390625 9.75359712230216  Z M 13.530029296875 2.53267386091127  C 14.251220703125 3.32424060751399  14.7177734375 4.20923261390887  14.9296875 5.18764988009592  C 14.7177734375 5.16047162270184  14.478515625 5.1468824940048  14.2119140625 5.1468824940048  C 13.056640625 5.1468824940048  11.99365234375 5.40847322142286  11.02294921875 5.93165467625899  C 10.05224609375 6.45483613109512  9.288330078125 7.16316946442846  8.731201171875 8.05665467625899  C 8.174072265625 8.95013988808953  7.8955078125 9.92685851318945  7.8955078125 10.9868105515588  C 7.8955078125 11.5167865707434  7.97412109375 12.033173461231  8.13134765625 12.5359712230216  C 7.89208984375 12.5563549160671  7.65966796875 12.5665467625899  7.43408203125 12.5665467625899  C 7.25634765625 12.5665467625899  7.08544921875 12.5614508393285  6.92138671875 12.5512589928058  C 6.75732421875 12.541067146283  6.5693359375 12.5189848121503  6.357421875 12.4850119904077  C 6.1455078125 12.4510391686651  5.993408203125 12.4272581934452  5.901123046875 12.4136690647482  C 5.808837890625 12.4000799360512  5.62255859375 12.3644084732214  5.34228515625 12.306654676259  C 5.06201171875 12.2489008792966  4.89111328125 12.2132294164668  4.82958984375 12.1996402877698  L 2.2353515625 13.4940047961631  L 2.9736328125 11.2721822541966  C 0.9912109375 9.89288569144684  0 8.22821742605915  0 6.27817745803357  C 0 5.12989608313349  0.333251953125 4.07334132693845  0.999755859375 3.10851318944844  C 1.666259765625 2.14368505195843  2.568603515625 1.38439248601119  3.706787109375 0.830635491606715  C 4.844970703125 0.276878497202237  6.08740234375 0  7.43408203125 0  C 8.63720703125 0  9.773681640625 0.2242206235012  10.843505859375 0.672661870503597  C 11.913330078125 1.121103117506  12.808837890625 1.74110711430855  13.530029296875 2.53267386091127  Z M 20.123291015625 8.2197242206235  C 20.707763671875 9.04526378896882  21 9.94044764188649  21 10.9052757793765  C 21 11.7002398081535  20.765869140625 12.4595323741007  20.297607421875 13.1831534772182  C 19.829345703125 13.9067745803357  19.1953125 14.5641486810552  18.3955078125 15.1552757793765  L 18.95947265625 17  L 16.9189453125 15.8890887290168  C 15.8935546875 16.1404876099121  15.1484375 16.2661870503597  14.68359375 16.2661870503597  C 13.5283203125 16.2661870503597  12.46533203125 16.0266786570743  11.49462890625 15.5476618705036  C 10.52392578125 15.0686450839329  9.760009765625 14.4180655475619  9.202880859375 13.5959232613909  C 8.645751953125 12.7737809752198  8.3671875 11.876898481215  8.3671875 10.9052757793765  C 8.3671875 9.93365307753797  8.645751953125 9.03677058353317  9.202880859375 8.21462829736211  C 9.760009765625 7.39248601119105  10.52392578125 6.74190647482014  11.49462890625 6.2628896882494  C 12.46533203125 5.78387290167866  13.5283203125 5.54436450839328  14.68359375 5.54436450839328  C 15.7841796875 5.54436450839328  16.81982421875 5.78387290167866  17.79052734375 6.2628896882494  C 18.76123046875 6.74190647482014  19.538818359375 7.39418465227818  20.123291015625 8.2197242206235  Z " fill-rule="nonzero" fill="#000000" stroke="none" transform="matrix(1 0 0 1 56 0 )" />
  </g>
</svg>