<?xml version="1.0" encoding="utf-8"?>
<svg version="1.1" xmlns:xlink="http://www.w3.org/1999/xlink" width="3px" height="13px" xmlns="http://www.w3.org/2000/svg">
  <g transform="matrix(1 0 0 1 -161 -392 )">
    <path d="M 2.78125 9.71306818181818  C 2.92708333333333 9.88541666666666  3 10.094696969697  3 10.3409090909091  L 3 12.1136363636364  C 3 12.3598484848485  2.92708333333333 12.5691287878788  2.78125 12.7414772727273  C 2.63541666666667 12.9138257575758  2.45833333333333 13  2.25 13  L 0.75 13  C 0.541666666666667 13  0.364583333333333 12.9138257575758  0.21875 12.7414772727273  C 0.0729166666666667 12.5691287878788  0 12.3598484848485  0 12.1136363636364  L 0 10.3409090909091  C 0 10.094696969697  0.0729166666666667 9.88541666666666  0.21875 9.71306818181818  C 0.364583333333333 9.5407196969697  0.541666666666667 9.45454545454546  0.75 9.45454545454546  L 2.25 9.45454545454546  C 2.45833333333333 9.45454545454546  2.63541666666667 9.5407196969697  2.78125 9.71306818181818  Z M 2.78125 4.98579545454546  C 2.92708333333333 5.15814393939394  3 5.36742424242424  3 5.61363636363636  L 3 7.38636363636364  C 3 7.63257575757576  2.92708333333333 7.84185606060606  2.78125 8.01420454545455  C 2.63541666666667 8.18655303030303  2.45833333333333 8.27272727272727  2.25 8.27272727272727  L 0.75 8.27272727272727  C 0.541666666666667 8.27272727272727  0.364583333333333 8.18655303030303  0.21875 8.01420454545455  C 0.0729166666666667 7.84185606060606  0 7.63257575757576  0 7.38636363636364  L 0 5.61363636363636  C 0 5.36742424242424  0.0729166666666667 5.15814393939394  0.21875 4.98579545454546  C 0.364583333333333 4.81344696969697  0.541666666666667 4.72727272727273  0.75 4.72727272727273  L 2.25 4.72727272727273  C 2.45833333333333 4.72727272727273  2.63541666666667 4.81344696969697  2.78125 4.98579545454546  Z M 2.78125 0.258522727272727  C 2.92708333333333 0.430871212121211  3 0.640151515151515  3 0.886363636363637  L 3 2.65909090909091  C 3 2.90530303030303  2.92708333333333 3.11458333333333  2.78125 3.28693181818182  C 2.63541666666667 3.4592803030303  2.45833333333333 3.54545454545455  2.25 3.54545454545455  L 0.75 3.54545454545455  C 0.541666666666667 3.54545454545455  0.364583333333333 3.4592803030303  0.21875 3.28693181818182  C 0.0729166666666667 3.11458333333333  0 2.90530303030303  0 2.65909090909091  L 0 0.886363636363637  C 0 0.640151515151515  0.0729166666666667 0.430871212121211  0.21875 0.258522727272727  C 0.364583333333333 0.086174242424242  0.541666666666667 0  0.75 0  L 2.25 0  C 2.45833333333333 0  2.63541666666667 0.086174242424242  2.78125 0.258522727272727  Z " fill-rule="nonzero" fill="#aaaaaa" stroke="none" transform="matrix(1 0 0 1 161 392 )" />
  </g>
</svg>