<?xml version="1.0" encoding="utf-8"?>
<svg version="1.1" xmlns:xlink="http://www.w3.org/1999/xlink" width="20px" height="20px" xmlns="http://www.w3.org/2000/svg">
  <g transform="matrix(1 0 0 1 -1416 -879 )">
    <path d="M 8.0002 2  C 8.0002 3.10457  8.8956 4  10.0002 4  C 11.1047 4  12.0002 3.10457  12.0002 2  C 12.0002 0.89543  11.1047 0  10.0002 0  C 8.8956 0  8.0002 0.89543  8.0002 2  Z M 0.48954 6.90978  C 0.83087 5.85927  1.95918 5.28437  3.00969 5.6257  C 4.0602 5.96703  4.6351 7.09534  4.29377 8.1458  C 3.95244 9.1964  2.82413 9.7713  1.77362 9.4299  C 0.72311 9.0886  0.14821 7.96028  0.48954 6.90978  Z M 3.67983 4.70336  C 3.03058 3.80975  3.22868 2.55901  4.12229 1.90976  C 5.01591 1.26051  6.26665 1.4586  6.9159 2.35222  C 7.56515 3.24584  7.36705 4.49657  6.47343 5.14582  C 5.57982 5.79507  4.32908 5.59698  3.67983 4.70336  Z M 3.67984 15.2964  C 4.32909 14.4028  5.57983 14.2047  6.47345 14.854  C 7.36706 15.5032  7.56516 16.754  6.91591 17.6476  C 6.26666 18.5412  5.01592 18.7393  4.12231 18.0901  C 3.22869 17.4408  3.03059 16.1901  3.67984 15.2964  Z M 0.48956 13.0901  C 0.14823 12.0396  0.72313 10.9113  1.77363 10.5699  C 2.82414 10.2286  3.95245 10.8035  4.29378 11.854  C 4.63511 12.9045  4.06021 14.0328  3.0097 14.3742  C 1.95919 14.7155  0.83089 14.1406  0.48956 13.0901  Z M 12.0002 18  C 12.0002 16.8954  11.1047 16  10.0002 16  C 8.8956 16  8.0002 16.8954  8.0002 18  C 8.0002 19.1046  8.8956 20  10.0002 20  C 11.1047 20  12.0002 19.1046  12.0002 18  Z M 13.5268 14.8539  C 14.4205 14.2047  15.6712 14.4028  16.3204 15.2964  C 16.9697 16.19  16.7716 17.4408  15.878 18.09  C 14.9844 18.7392  13.7336 18.5412  13.0844 17.6475  C 12.4351 16.7539  12.6332 15.5032  13.5268 14.8539  Z M 16.9905 14.3742  C 15.94 14.0328  15.3651 12.9045  15.7064 11.854  C 16.0478 10.8035  17.1761 10.2286  18.2266 10.57  C 19.2771 10.9113  19.852 12.0396  19.5107 13.0901  C 19.1693 14.1406  18.041 14.7155  16.9905 14.3742  Z M 16.9905 5.62572  C 18.041 5.28439  19.1693 5.8593  19.5106 6.9098  C 19.852 7.96031  19.2771 9.0886  18.2265 9.43  C 17.176 9.7713  16.0477 9.1964  15.7064 8.1459  C 15.3651 7.09536  15.94 5.96706  16.9905 5.62572  Z M 13.5268 5.14577  C 12.6332 4.49652  12.4351 3.24578  13.0844 2.35216  C 13.7336 1.45855  14.9844 1.26045  15.878 1.9097  C 16.7716 2.55895  16.9697 3.80969  16.3204 4.70331  C 15.6712 5.59692  14.4204 5.79502  13.5268 5.14577  Z " fill-rule="nonzero" fill="#000000" stroke="none" transform="matrix(1 0 0 1 1416 879 )" />
  </g>
</svg>