<?xml version="1.0" encoding="utf-8"?>
<svg version="1.1" xmlns:xlink="http://www.w3.org/1999/xlink" width="20px" height="20px" xmlns="http://www.w3.org/2000/svg">
  <g transform="matrix(1 0 0 1 -1887 -816 )">
    <path d="M 11 16  L 11 19  C 11 19.5523  10.5523 20  10 20  C 9.4477 20  9 19.5523  9 19  L 9 16  C 9 15.4477  9.4477 15  10 15  C 10.5523 15  11 15.4477  11 16  Z M 11 1  L 11 4  C 11 4.55229  10.5523 5  10 5  C 9.4477 5  9 4.55229  9 4  L 9 1  C 9 0.44772  9.4477 0  10 0  C 10.5523 0  11 0.44772  11 1  Z M 19 11  C 19.5523 11  20 10.5523  20 10  C 20 9.4477  19.5523 9  19 9  L 16 9  C 15.4477 9  15 9.4477  15 10  C 15 10.5523  15.4477 11  16 11  L 19 11  Z M 1 9  L 4 9  C 4.55228 9  5 9.4477  5 10  C 5 10.5523  4.55228 11  4 11  L 1 11  C 0.44772 11  0 10.5523  0 10  C 0 9.4477  0.44772 9  1 9  Z M 15.6568 17.0711  C 16.0474 17.4616  16.6805 17.4616  17.0711 17.0711  C 17.4616 16.6806  17.4616 16.0474  17.0711 15.6569  L 14.9497 13.5356  C 14.5592 13.1451  13.9261 13.1451  13.5355 13.5356  C 13.145 13.9261  13.145 14.5593  13.5355 14.9498  L 15.6568 17.0711  Z M 4.34314 2.9289  L 6.46446 5.05022  C 6.85499 5.44074  6.85499 6.07391  6.46446 6.46443  C 6.07394 6.85496  5.44077 6.85496  5.05025 6.46443  L 2.92893 4.34311  C 2.5384 3.95259  2.5384 3.31942  2.92893 2.9289  C 3.31945 2.53837  3.95262 2.53837  4.34314 2.9289  Z M 17.0711 4.34309  C 17.4616 3.95257  17.4616 3.3194  17.0711 2.92888  C 16.6805 2.53835  16.0474 2.53835  15.6568 2.92888  L 13.5355 5.0502  C 13.145 5.44072  13.145 6.07389  13.5355 6.46441  C 13.9261 6.85494  14.5592 6.85494  14.9497 6.46441  L 17.0711 4.34309  Z M 2.92893 15.6569  L 5.05025 13.5356  C 5.44077 13.145  6.07394 13.145  6.46446 13.5356  C 6.85499 13.9261  6.85499 14.5593  6.46446 14.9498  L 4.34314 17.0711  C 3.95262 17.4616  3.31945 17.4616  2.92893 17.0711  C 2.5384 16.6806  2.5384 16.0474  2.92893 15.6569  Z " fill-rule="nonzero" fill="#000000" stroke="none" transform="matrix(1 0 0 1 1887 816 )" />
  </g>
</svg>